<?xml version="1.0" standalone="no"?>
<!DOCTYPE svg PUBLIC "-//W3C//DTD SVG 20010904//EN"
 "http://www.w3.org/TR/2001/REC-SVG-20010904/DTD/svg10.dtd">
<svg version="1.0" xmlns="http://www.w3.org/2000/svg"
 width="512.000000pt" height="512.000000pt" viewBox="0 0 512.000000 512.000000"
 preserveAspectRatio="xMidYMid meet">

<g transform="translate(0.000000,512.000000) scale(0.100000,-0.100000)"
fill="#FFFFFF" stroke="none">
<path d="M245 4601 c-87 -22 -172 -93 -214 -181 l-26 -55 0 -1805 0 -1805 26
-55 c33 -70 89 -126 159 -159 l55 -26 1683 -3 1683 -2 24 24 c32 32 32 70 0
101 l-24 25 -1663 0 c-1601 0 -1665 1 -1698 19 -19 10 -48 35 -65 55 l-30 38
0 1788 0 1788 31 39 c58 73 60 73 415 73 303 0 316 1 337 20 29 27 29 83 2
110 -19 19 -33 20 -342 19 -178 -1 -336 -4 -353 -8z"/>
<path d="M1142 4587 c-29 -31 -29 -77 1 -105 l23 -22 1845 -2 1846 -3 37 -29
c21 -16 47 -47 57 -70 18 -40 19 -103 19 -1796 0 -1693 -1 -1756 -19 -1796
-10 -23 -36 -54 -57 -70 l-37 -29 -505 -5 -504 -5 -19 -24 c-26 -32 -24 -67 6
-97 l25 -25 507 3 508 3 56 26 c69 33 124 88 158 159 l26 55 0 1805 0 1805
-26 55 c-32 68 -84 122 -152 158 l-52 27 -1861 3 -1860 2 -22 -23z"/>
<path d="M2903 4069 c-62 -24 -142 -97 -172 -157 -65 -128 -40 -283 60 -383
l40 -40 -25 -52 c-22 -43 -26 -65 -26 -137 l0 -86 -83 -41 c-214 -106 -402
-301 -508 -527 -318 -680 98 -1472 842 -1602 122 -21 340 -14 449 14 221 59
396 157 544 307 40 40 87 95 106 123 19 29 38 52 42 52 4 0 43 -61 88 -135
100 -167 121 -192 185 -221 141 -66 309 14 345 166 23 97 19 106 -257 567
-141 236 -265 439 -277 451 -11 13 -41 36 -66 50 l-45 27 -435 5 -435 5 -3
102 -3 102 343 3 c330 3 345 4 384 25 154 82 186 281 63 401 -68 67 -68 67
-446 70 l-343 3 0 115 c0 103 -3 120 -25 164 l-25 50 35 31 c19 17 49 60 67
97 28 57 33 76 33 142 0 66 -5 85 -33 142 -60 122 -167 189 -300 187 -42 0
-86 -8 -119 -20z m207 -149 c150 -76 113 -310 -53 -337 -55 -8 -104 5 -143 39
-47 42 -66 82 -66 139 0 134 143 220 262 159z m-8 -533 c15 -18 18 -45 18
-165 0 -148 10 -192 45 -206 9 -3 179 -6 378 -6 268 0 368 -4 387 -13 14 -7
33 -29 43 -49 16 -33 17 -40 3 -72 -27 -65 -33 -66 -439 -66 -344 0 -366 -1
-388 -19 -24 -19 -24 -23 -27 -212 -4 -209 -1 -230 28 -259 19 -19 35 -20 480
-20 334 0 466 -3 485 -12 20 -9 92 -121 281 -436 140 -233 254 -431 254 -439
0 -50 -52 -103 -100 -103 -54 0 -69 21 -287 384 -119 199 -225 371 -236 384
l-20 22 -495 0 c-538 0 -545 1 -571 56 -8 18 -11 195 -11 614 l0 588 25 31
c14 16 36 31 48 33 35 6 80 -10 99 -35z m-322 -446 l0 -100 -32 -22 c-144
-101 -265 -277 -309 -448 -74 -290 12 -588 230 -794 87 -82 179 -137 301 -179
90 -31 102 -32 240 -32 170 -1 228 12 366 80 156 76 268 186 355 348 l45 85
52 -87 c29 -49 52 -93 52 -99 0 -20 -79 -131 -141 -198 -88 -93 -176 -158
-294 -215 -132 -65 -239 -91 -390 -97 -751 -31 -1254 754 -915 1427 75 150
189 278 333 374 45 31 88 56 95 56 9 0 12 -26 12 -99z m0 -549 c0 -247 0 -248
26 -300 14 -29 42 -66 62 -82 69 -57 94 -60 553 -60 l418 0 -21 -47 c-58 -132
-179 -258 -310 -323 -110 -54 -206 -73 -328 -67 -269 15 -492 185 -584 446
-27 78 -30 98 -30 206 0 105 4 130 28 200 15 44 43 105 61 135 38 63 102 140
116 140 5 0 9 -103 9 -248z"/>
<path d="M1751 3984 l-21 -27 0 -1397 0 -1397 21 -27 c26 -33 79 -36 109 -6
20 20 20 33 20 1430 0 1397 0 1410 -20 1430 -30 30 -83 27 -109 -6z"/>
<path d="M430 3843 c-35 -13 -60 -47 -60 -82 0 -20 41 -238 90 -486 88 -440
90 -451 120 -477 22 -21 41 -28 70 -28 74 0 80 11 189 363 54 175 101 320 103
322 2 3 48 -138 102 -313 109 -356 118 -372 197 -372 31 0 47 7 68 28 25 25
34 59 119 487 51 253 92 470 92 483 0 36 -43 72 -85 72 -69 0 -73 -10 -144
-368 -35 -178 -67 -318 -71 -310 -4 7 -49 148 -99 313 -50 165 -96 310 -101
322 -12 30 -63 55 -95 47 -14 -3 -33 -16 -43 -29 -10 -12 -63 -167 -117 -344
-68 -218 -102 -316 -107 -304 -4 10 -33 149 -63 308 -31 160 -61 303 -67 319
-7 17 -25 34 -44 42 -19 8 -35 14 -36 13 -2 0 -10 -3 -18 -6z"/>
<path d="M866 2335 c-135 -37 -270 -143 -333 -261 -114 -215 -78 -471 91 -640
186 -186 485 -212 673 -58 24 20 51 47 60 61 38 57 1 133 -65 133 -27 0 -45
-9 -79 -41 -63 -58 -119 -80 -201 -80 -81 0 -112 6 -175 38 -66 33 -133 102
-165 171 -24 50 -27 70 -27 157 0 89 3 106 28 157 35 71 104 140 176 176 50
24 67 27 156 27 93 0 104 -2 163 -32 75 -39 120 -42 150 -10 34 36 30 89 -10
123 -38 32 -102 62 -173 80 -63 17 -205 16 -269 -1z"/>
</g>
</svg>
