<?xml version="1.0" standalone="no"?>
<!DOCTYPE svg PUBLIC "-//W3C//DTD SVG 20010904//EN"
 "http://www.w3.org/TR/2001/REC-SVG-20010904/DTD/svg10.dtd">
<svg version="1.0" xmlns="http://www.w3.org/2000/svg"
 width="512.000000pt" height="512.000000pt" viewBox="0 0 512.000000 512.000000"
 preserveAspectRatio="xMidYMid meet">

<g transform="translate(0.000000,512.000000) scale(0.100000,-0.100000)"
fill="#FFFFFF" stroke="none">
<path d="M728 4845 c-75 -20 -135 -54 -192 -106 -105 -96 -156 -210 -156 -349
0 -219 141 -399 357 -455 262 -68 528 109 575 383 40 233 -114 466 -347 527
-70 18 -172 18 -237 0z m218 -150 c78 -24 143 -80 184 -159 31 -61 35 -78 35
-145 0 -128 -62 -227 -178 -288 -45 -24 -64 -28 -137 -28 -73 0 -93 4 -142 28
-62 30 -115 83 -150 149 -19 36 -23 58 -23 138 0 87 3 100 30 149 76 138 231
201 381 156z"/>
<path d="M4151 4844 c-230 -62 -382 -294 -343 -526 62 -370 504 -526 778 -275
103 94 154 208 154 347 0 139 -51 253 -156 349 -116 106 -280 146 -433 105z
m233 -154 c69 -26 134 -83 171 -151 27 -49 30 -62 30 -149 0 -80 -4 -102 -23
-138 -35 -66 -88 -119 -150 -149 -49 -24 -69 -28 -142 -28 -99 1 -154 22 -221
87 -63 61 -94 137 -94 229 0 67 4 84 35 145 75 146 240 211 394 154z"/>
<path d="M582 3779 c-146 -22 -270 -87 -384 -201 -61 -62 -86 -95 -122 -170
-46 -95 -76 -208 -76 -291 0 -53 30 -87 77 -87 46 0 69 34 76 118 18 190 128
348 301 432 110 53 192 64 450 58 169 -4 211 -8 267 -26 162 -53 297 -188 351
-352 20 -61 22 -90 26 -464 2 -219 1 -418 -3 -443 -9 -64 -48 -104 -108 -110
-54 -6 -87 10 -117 60 -19 30 -20 53 -20 415 0 369 -1 383 -20 402 -30 30 -83
27 -109 -6 -20 -26 -21 -37 -21 -404 0 -414 3 -439 60 -516 24 -34 89 -78 148
-100 4 -2 82 -416 82 -436 0 -17 -35 -18 -596 -18 -576 0 -596 1 -591 19 2 10
22 111 43 225 l38 207 41 18 c60 27 115 79 141 136 24 50 24 52 24 450 0 452
1 445 -69 445 -26 0 -44 -7 -57 -21 -18 -20 -19 -44 -22 -411 -2 -339 -5 -393
-19 -414 -33 -51 -106 -68 -163 -39 -58 30 -60 38 -60 291 0 219 -1 233 -21
258 -28 36 -80 36 -108 0 -20 -25 -21 -39 -21 -268 0 -232 1 -243 24 -292 24
-52 94 -121 133 -130 13 -4 23 -14 23 -23 0 -9 -20 -122 -45 -251 -53 -280
-55 -301 -19 -329 22 -18 41 -21 115 -21 l88 0 3 -502 3 -503 28 -57 c30 -61
74 -105 140 -140 34 -19 58 -23 127 -23 72 0 92 4 135 27 28 14 58 35 69 46
l18 21 45 -34 c158 -121 376 -67 462 115 l26 55 3 498 3 497 90 0 c82 0 92 2
114 25 14 13 25 33 25 43 0 19 -87 493 -96 524 -4 12 6 23 34 37 46 23 105 86
129 138 16 35 18 78 18 488 0 505 0 510 -74 660 -65 132 -169 238 -302 306
-121 63 -174 72 -439 75 -129 1 -263 -2 -298 -7z m188 -2778 l0 -488 -23 -34
c-64 -96 -212 -87 -261 15 -14 30 -16 92 -16 515 l0 481 150 0 150 0 0 -489z
m458 0 c-3 -479 -3 -490 -24 -518 -72 -97 -186 -97 -258 0 -21 28 -21 39 -24
518 l-3 489 156 0 156 0 -3 -489z"/>
<path d="M4040 3784 c-126 -19 -202 -46 -300 -109 -146 -93 -248 -236 -297
-415 -16 -58 -18 -114 -18 -515 0 -410 2 -453 18 -488 45 -97 147 -167 244
-167 l52 0 3 -276 3 -276 28 -24 c34 -29 56 -30 91 -3 l26 20 0 318 0 317 25
34 c51 70 55 103 55 510 0 367 -1 378 -21 404 -26 33 -79 36 -109 6 -19 -19
-20 -33 -20 -402 0 -362 -1 -385 -20 -415 -30 -50 -63 -66 -117 -60 -60 6 -99
46 -108 110 -4 24 -5 223 -3 443 4 376 6 403 26 465 55 165 191 299 357 352
64 20 90 22 320 22 218 0 257 -2 305 -19 140 -47 250 -133 317 -247 18 -30 42
-90 53 -133 18 -73 20 -111 20 -489 0 -345 -2 -414 -15 -441 -28 -59 -103 -83
-164 -52 -57 30 -56 17 -61 446 -5 373 -6 399 -24 419 -25 27 -86 29 -109 3
-15 -17 -17 -61 -17 -423 l0 -404 24 -51 c13 -28 29 -55 35 -58 8 -5 11 -242
11 -834 l0 -827 -23 -39 c-53 -94 -187 -101 -251 -13 -21 28 -21 40 -26 749
l-5 720 -24 19 c-31 26 -73 24 -99 -4 l-21 -23 -3 -711 c-3 -704 -3 -712 -24
-740 -72 -97 -186 -97 -258 0 -20 27 -21 41 -24 402 l-3 374 -26 21 c-34 26
-56 25 -90 -4 l-28 -24 0 -379 0 -378 26 -55 c86 -182 304 -236 462 -115 l45
34 18 -21 c11 -11 42 -32 69 -46 43 -23 63 -27 135 -27 69 0 93 4 127 23 66
35 110 79 140 140 l28 57 3 801 2 802 63 4 c106 7 178 54 230 152 22 40 22 50
25 476 3 503 0 535 -74 688 -36 74 -59 107 -122 170 -119 118 -238 179 -396
201 -71 10 -427 13 -486 5z"/>
<path d="M2420 3371 c-150 -48 -262 -178 -292 -339 -33 -178 69 -375 235 -453
130 -60 253 -59 383 6 287 141 314 548 49 730 -104 72 -256 94 -375 56z m245
-155 c213 -99 218 -400 8 -503 -216 -105 -457 97 -389 329 46 159 232 244 381
174z"/>
<path d="M2252 2400 c-180 -48 -335 -173 -410 -331 -22 -46 -46 -109 -53 -139
-20 -78 -19 -490 0 -544 30 -86 140 -166 228 -166 l41 0 4 -372 c4 -409 3
-406 67 -487 57 -72 178 -115 273 -97 19 3 61 22 93 41 l58 35 38 -26 c92 -63
191 -71 287 -23 68 33 105 71 136 139 20 43 21 64 24 418 l3 372 36 0 c102 0
208 80 237 179 21 72 22 390 1 506 -39 219 -206 410 -425 486 -60 21 -86 23
-315 26 -223 2 -258 1 -323 -17z m563 -145 c156 -41 279 -154 337 -311 20 -54
22 -78 22 -287 l1 -229 -33 -29 c-35 -31 -73 -37 -117 -17 -50 23 -55 48 -55
283 0 216 0 216 -25 240 -31 32 -69 32 -100 0 l-25 -24 0 -224 c0 -237 6 -275
50 -337 19 -27 20 -43 20 -412 0 -351 -2 -386 -19 -424 -36 -80 -142 -98 -205
-35 l-31 31 -5 336 -5 336 -28 24 c-34 29 -56 30 -90 4 l-26 -21 -3 -327 c-3
-304 -4 -329 -23 -359 -59 -99 -209 -72 -235 43 -5 21 -10 204 -10 406 l0 367
33 52 32 52 3 247 3 248 -27 21 c-35 28 -69 27 -99 -4 -25 -24 -25 -24 -25
-239 0 -233 -5 -257 -51 -282 -64 -32 -130 -4 -149 64 -13 47 -13 302 0 402
25 190 161 349 343 401 85 24 453 27 542 4z"/>
</g>
</svg>
