<?xml version="1.0" standalone="no"?>
<!DOCTYPE svg PUBLIC "-//W3C//DTD SVG 20010904//EN"
 "http://www.w3.org/TR/2001/REC-SVG-20010904/DTD/svg10.dtd">
<svg version="1.0" xmlns="http://www.w3.org/2000/svg"
 width="512.000000pt" height="512.000000pt" viewBox="0 0 512.000000 512.000000"
 preserveAspectRatio="xMidYMid meet">

<g transform="translate(0.000000,512.000000) scale(0.100000,-0.100000)"
fill="#FFFFFF" stroke="none">
<path d="M2459 5107 c-217 -62 -341 -289 -277 -507 8 -30 7 -41 -12 -73 -15
-25 -28 -36 -37 -33 -37 15 -94 17 -129 6 -56 -18 -97 -52 -155 -128 -104
-137 -169 -312 -186 -501 l-8 -83 -36 -12 c-57 -20 -93 -51 -123 -106 -26 -49
-28 -58 -24 -143 5 -111 26 -165 94 -238 56 -59 110 -93 175 -109 l46 -12 12
-65 c24 -133 88 -249 199 -362 l62 -63 0 -99 0 -99 -267 0 c-202 0 -281 -4
-323 -15 -189 -50 -342 -198 -403 -390 -21 -68 -22 -81 -22 -565 l0 -495 27
-80 c59 -174 162 -298 330 -398 110 -65 145 -71 177 -31 41 52 25 89 -56 134
-166 93 -252 185 -301 323 -25 68 -26 82 -26 282 l-1 210 210 0 210 0 5 -187
c4 -149 8 -190 20 -202 8 -8 269 -161 580 -340 310 -180 571 -333 579 -340 20
-21 0 -65 -56 -122 -89 -92 -245 -135 -364 -101 -30 9 -161 77 -291 152 -130
74 -246 135 -257 135 -30 0 -71 -43 -71 -74 0 -14 10 -36 22 -49 24 -26 412
-252 488 -285 75 -32 144 -42 290 -42 146 0 215 10 290 42 99 43 948 541 1003
589 66 59 146 174 177 256 47 123 52 191 48 676 -4 433 -5 455 -26 517 -63
190 -216 337 -398 384 -49 13 -118 16 -328 16 l-266 0 0 99 0 99 63 63 c110
113 174 229 198 362 l12 65 46 12 c65 16 119 50 175 109 68 73 89 127 94 238
4 85 3 94 -24 143 -30 56 -77 95 -134 110 l-35 10 -1 77 c-1 97 -29 225 -53
247 -23 21 -75 24 -97 5 -28 -23 -34 -54 -19 -110 8 -29 17 -82 21 -118 5 -57
3 -69 -15 -92 -18 -23 -35 -28 -131 -44 -343 -55 -656 61 -873 323 -59 72 -72
82 -100 82 -45 0 -62 -16 -87 -80 -50 -129 -153 -291 -238 -374 l-40 -38 -7
78 c-10 103 7 232 44 334 44 120 155 280 195 280 24 0 56 -37 56 -63 0 -54 81
-80 121 -40 13 12 23 42 29 80 13 96 52 154 132 199 51 28 59 29 178 29 143 0
227 -20 340 -82 67 -36 166 -111 209 -157 33 -36 82 -35 110 0 30 39 26 68
-16 116 -38 42 -164 139 -221 170 -31 17 -31 17 -31 100 0 129 -39 218 -136
306 -34 31 -77 59 -113 72 -70 27 -190 35 -253 17z m217 -165 c41 -21 79 -58
108 -103 19 -30 36 -122 26 -138 -4 -7 -33 -5 -90 5 -112 21 -274 15 -347 -13
-44 -18 -53 -18 -57 -6 -9 23 -7 46 10 102 23 79 89 144 174 172 40 13 133 3
176 -19z m-269 -1175 c164 -109 339 -166 538 -174 66 -3 151 -1 190 5 38 6 71
10 73 8 10 -11 -31 -468 -48 -526 -50 -170 -243 -353 -456 -432 -82 -31 -206
-31 -288 0 -147 54 -323 189 -396 302 -61 95 -71 138 -90 375 l-18 220 67 70
c74 78 141 168 192 262 l34 61 65 -62 c36 -34 98 -83 137 -109z m1067 -148
c22 -18 26 -28 26 -75 0 -65 -20 -118 -62 -161 -29 -30 -84 -61 -92 -52 -3 2
0 73 6 157 l11 152 42 0 c28 0 51 -7 69 -21z m-1794 -4 c0 -9 20 -35 43 -58
l44 -42 6 -93 c3 -58 2 -92 -4 -92 -39 0 -110 65 -133 122 -21 50 -21 136 1
160 20 22 43 24 43 3z m606 -1075 c193 -91 346 -91 548 -1 37 17 70 31 72 31
2 0 4 -30 4 -67 0 -111 42 -156 157 -171 l56 -7 -111 -106 c-84 -82 -127 -115
-183 -143 -175 -86 -363 -86 -538 0 -56 28 -99 61 -183 143 l-111 106 56 7
c115 15 157 60 157 171 0 37 3 67 7 67 3 0 35 -13 69 -30z m-331 -378 c186
-184 245 -224 405 -273 108 -34 292 -34 400 0 161 49 219 89 405 274 l170 168
140 -3 c133 -3 143 -5 205 -34 144 -68 225 -183 245 -348 l8 -59 -54 43 c-143
113 -312 154 -478 115 -208 -49 -373 -216 -416 -421 -7 -36 -16 -68 -18 -71
-3 -2 -35 -11 -71 -18 -112 -24 -190 -69 -298 -175 -107 -104 -119 -131 -76
-177 40 -42 70 -32 161 55 105 100 159 132 269 156 25 6 28 2 43 -47 57 -174
195 -315 356 -363 l61 -18 -6 -46 c-13 -95 -48 -144 -250 -348 l-191 -193 -18
43 c-10 24 -30 55 -45 71 -14 15 -156 102 -314 194 l-288 166 45 48 c25 26 45
55 45 63 0 43 -43 86 -86 86 -9 0 -44 -27 -78 -59 l-62 -60 -194 113 -195 112
-5 375 c-4 268 -8 380 -17 395 -23 39 -67 45 -107 13 l-26 -20 0 -155 0 -154
-215 0 -215 0 0 158 c0 246 27 340 125 438 95 95 172 122 345 123 l126 1 169
-168z m1687 -272 c290 -89 379 -451 164 -666 -231 -230 -624 -102 -679 222
-21 119 24 256 111 343 109 109 258 146 404 101z m282 -817 c-16 -123 -91
-265 -177 -336 -31 -25 -410 -251 -512 -305 -5 -3 45 51 113 121 135 138 180
213 205 337 l13 64 64 13 c80 16 193 70 245 116 22 20 43 36 47 37 4 0 5 -21
2 -47z"/>
<path d="M3603 1650 c-45 -18 -56 -76 -23 -125 27 -41 25 -81 -5 -110 -30 -31
-73 -32 -108 -5 -32 25 -88 26 -110 2 -22 -24 -22 -71 -1 -101 22 -31 110 -71
158 -71 90 0 182 56 217 134 57 127 -30 315 -128 276z"/>
</g>
</svg>
